<svg xmlns="http://www.w3.org/2000/svg" width="1024" height="1024" viewBox="0 0 1024 1024">
  <defs>
    <linearGradient id="bg" x1="156" y1="116" x2="868" y2="908" gradientUnits="userSpaceOnUse">
      <stop stop-color="#17202A"/>
      <stop offset="0.56" stop-color="#0D7763"/>
      <stop offset="1" stop-color="#0AA37D"/>
    </linearGradient>
    <linearGradient id="ring" x1="260" y1="214" x2="772" y2="814" gradientUnits="userSpaceOnUse">
      <stop stop-color="#FFFFFF"/>
      <stop offset="1" stop-color="#D8FFF4"/>
    </linearGradient>
    <filter id="shadow" x="-20%" y="-20%" width="140%" height="140%" color-interpolation-filters="sRGB">
      <feDropShadow dx="0" dy="28" stdDeviation="32" flood-color="#052A24" flood-opacity="0.34"/>
    </filter>
  </defs>
  <rect width="1024" height="1024" rx="224" fill="url(#bg)"/>
  <circle cx="216" cy="184" r="144" fill="#FFFFFF" opacity="0.08"/>
  <circle cx="828" cy="832" r="216" fill="#0B2A34" opacity="0.16"/>
  <g filter="url(#shadow)">
    <path
      d="M646 286A272 272 0 1 0 740 468"
      fill="none"
      stroke="url(#ring)"
      stroke-width="76"
      stroke-linecap="round"/>
    <path
      d="M656 190l34 88 88 34-88 34-34 88-34-88-88-34 88-34 34-88Z"
      fill="#FFFFFF"/>
    <path
      d="M448 334l72 148 154 54-148 72-54 154-72-148-154-54 148-72 54-154Z"
      fill="#FFFFFF"/>
    <path
      d="M292 712h236c108 0 196-88 196-196v-40"
      fill="none"
      stroke="#D8FFF4"
      stroke-width="48"
      stroke-linecap="round"
      opacity="0.92"/>
  </g>
</svg>
